<svg width="24" height="24" viewBox="0 0 24 24" fill="none" xmlns="http://www.w3.org/2000/svg">
<path fill-rule="evenodd" clip-rule="evenodd" d="M7.5 6C7.08579 5.58579 6.41421 5.58579 6 6C5.58579 6.41421 5.58579 7.08579 6 7.5L10.5 12L6 16.5C5.58579 16.9142 5.58579 17.5858 6 18C6.41421 18.4142 7.08579 18.4142 7.5 18L12 13.5L16.5 18C16.9142 18.4142 17.5858 18.4142 18 18C18.4142 17.5858 18.4142 16.9142 18 16.5L13.5 12L18 7.5C18.4142 7.08579 18.4142 6.41421 18 6C17.5858 5.58579 16.9142 5.58579 16.5 6L12 10.5L7.5 6Z" fill="#282828"/>
</svg>
