<svg width="24" height="24" viewBox="0 0 24 24" fill="none" xmlns="http://www.w3.org/2000/svg">
<path d="M22 12.174V20C22 20.5304 21.7893 21.0391 21.4142 21.4142C21.0391 21.7893 20.5304 22 20 22H4C3.46957 22 2.96086 21.7893 2.58579 21.4142C2.21071 21.0391 2 20.5304 2 20V12.174C1.99994 11.6295 2.11104 11.0908 2.3265 10.5907C2.54195 10.0907 2.85722 9.63992 3.253 9.266L10.626 2.298C10.9973 1.94692 11.489 1.75131 12 1.75131C12.511 1.75131 13.0027 1.94692 13.374 2.298L20.747 9.266C21.1428 9.63992 21.458 10.0907 21.6735 10.5907C21.889 11.0908 22.0001 11.6295 22 12.174Z" stroke="#282828" stroke-width="2" stroke-linecap="round" stroke-linejoin="round"/>
</svg>
